<svg width="98" height="138" viewBox="0 0 98 138" fill="none" xmlns="http://www.w3.org/2000/svg">
<path d="M56.5385 0H41.4615V4.6H33.9231V9.2H26.3846V13.8H22.6154V18.4H15.0769V23H11.3077V27.6H3.76923V32.2H0V105.8H3.76923V110.4H11.3077V115H15.0769V119.6H22.6154V124.2H26.3846V128.8H33.9231V133.4H41.4615V138H56.5385V133.4H64.0769V128.8H71.6154V124.2H75.3846V119.6H82.9231V115H86.6923V110.4H94.2308V105.8H98V32.2H94.2308V27.6H86.6923V23H82.9231V18.4H75.3846V13.8H71.6154V9.2H64.0769V4.6H56.5385V0Z" fill="#E8EDF6"/>
</svg>
