<svg width="97" height="136" viewBox="0 0 97 136" fill="none" xmlns="http://www.w3.org/2000/svg">
<path d="M55.9615 0H41.0385V4.53333H33.5769V9.06667H26.1154V13.6H22.3846V18.1333H14.9231V22.6667H11.1923V27.2H3.73077V31.7333H0V104.267H3.73077V108.8H11.1923V113.333H14.9231V117.867H22.3846V122.4H26.1154V126.933H33.5769V131.467H41.0385V136H55.9615V131.467H63.4231V126.933H70.8846V122.4H74.6154V117.867H82.0769V113.333H85.8077V108.8H93.2692V104.267H97V31.7333H93.2692V27.2H85.8077V22.6667H82.0769V18.1333H74.6154V13.6H70.8846V9.06667H63.4231V4.53333H55.9615V0Z" fill="#CE4CDF"/>
</svg>
