<svg width="79" height="96" viewBox="0 0 79 96" fill="none" xmlns="http://www.w3.org/2000/svg">
<path fill-rule="evenodd" clip-rule="evenodd" d="M47.4 0V3.2H50.0333V6.4H52.6667V12.8H55.3V22.4H57.9333V25.6H60.5667V22.4H71.1V25.6H73.7333V28.8H76.3667V35.2H79V48H76.3667V54.4H73.7333V57.6H68.4667V60.8H65.8333V64H68.4667V70.4H71.1V83.2H68.4667V89.6H65.8333V92.8H60.5667V96H50.0333V92.8H44.7667V89.6H42.1333V86.4H36.8667V89.6H34.2333V92.8H28.9667V96H18.4333V92.8H13.1667V89.6H10.5333V83.2H7.9V70.4H10.5333V64H13.1667V60.8H10.5333V57.6H5.26667V54.4H2.63333V48H0V35.2H2.63333V28.8H5.26667V25.6H7.9V22.4H18.4333V25.6H21.0667V22.4H23.7V12.8H26.3333V6.4H28.9667V3.2H31.6V0H47.4Z" fill="#29116C"/>
<path d="M47.4 3.2V0H31.6V3.2H28.9667V6.4H26.3333V12.8H23.7V22.4H21.0667V25.6H18.4333V22.4H7.9V25.6H5.26667V28.8H2.63333V35.2H0V48H2.63333V54.4H5.26667V57.6H10.5333V60.8H13.1667V64H10.5333V70.4H7.9V83.2H10.5333V89.6H13.1667V92.8H18.4333V96H28.9667V92.8H34.2333V89.6H36.8667V86.4H42.1333V89.6H44.7667V92.8H50.0333V96H60.5667V92.8H65.8333V89.6H68.4667V83.2H71.1V70.4H68.4667V64H65.8333V60.8H68.4667V57.6H73.7333V54.4H76.3667V48H79V35.2H76.3667V28.8H73.7333V25.6H71.1V22.4H60.5667V25.6H57.9333V22.4H55.3V12.8H52.6667V6.4H50.0333V3.2H47.4Z" fill="#29116C"/>
</svg>
