<svg width="165" height="94" viewBox="0 0 165 94" fill="none" xmlns="http://www.w3.org/2000/svg">
<g filter="url(#filter0_d_309_17529)">
<path d="M16.9526 25.8447L134.816 27.0613L134.724 69.488L16.8612 68.2714L16.9526 25.8447Z" fill="#9C1EF3"/>
<path d="M16.9526 25.8447L134.816 27.0613L134.724 69.488L16.8612 68.2714L16.9526 25.8447Z" fill="black" fill-opacity="0.2"/>
<path d="M17.4515 26.3499L134.315 27.5562L134.225 68.9829L17.3623 67.7766L17.4515 26.3499Z" stroke="#0B0B0B"/>
</g>
<g filter="url(#filter1_d_309_17529)">
<path d="M22.5913 16.9326L140.454 18.154L140.363 60.5807L22.5002 59.3593L22.5913 16.9326Z" fill="#E8EDF6"/>
<path d="M23.0902 17.4378L139.953 18.6488L139.864 60.0755L23.0013 58.8645L23.0902 17.4378Z" stroke="#0B0B0B"/>
</g>
<defs>
<filter id="filter0_d_309_17529" x="0.861328" y="9.84473" width="157.954" height="83.6436" filterUnits="userSpaceOnUse" color-interpolation-filters="sRGB">
<feFlood flood-opacity="0" result="BackgroundImageFix"/>
<feColorMatrix in="SourceAlpha" type="matrix" values="0 0 0 0 0 0 0 0 0 0 0 0 0 0 0 0 0 0 127 0" result="hardAlpha"/>
<feOffset dx="4" dy="4"/>
<feGaussianBlur stdDeviation="10"/>
<feComposite in2="hardAlpha" operator="out"/>
<feColorMatrix type="matrix" values="0 0 0 0 0.0392157 0 0 0 0 0.556863 0 0 0 0 0.258824 0 0 0 0.43 0"/>
<feBlend mode="normal" in2="BackgroundImageFix" result="effect1_dropShadow_309_17529"/>
<feBlend mode="normal" in="SourceGraphic" in2="effect1_dropShadow_309_17529" result="shape"/>
</filter>
<filter id="filter1_d_309_17529" x="6.5" y="0.932617" width="157.954" height="83.6484" filterUnits="userSpaceOnUse" color-interpolation-filters="sRGB">
<feFlood flood-opacity="0" result="BackgroundImageFix"/>
<feColorMatrix in="SourceAlpha" type="matrix" values="0 0 0 0 0 0 0 0 0 0 0 0 0 0 0 0 0 0 127 0" result="hardAlpha"/>
<feOffset dx="4" dy="4"/>
<feGaussianBlur stdDeviation="10"/>
<feComposite in2="hardAlpha" operator="out"/>
<feColorMatrix type="matrix" values="0 0 0 0 0.0392157 0 0 0 0 0.556863 0 0 0 0 0.258824 0 0 0 0.43 0"/>
<feBlend mode="normal" in2="BackgroundImageFix" result="effect1_dropShadow_309_17529"/>
<feBlend mode="normal" in="SourceGraphic" in2="effect1_dropShadow_309_17529" result="shape"/>
</filter>
</defs>
</svg>
