<svg width="128" height="92" viewBox="0 0 128 92" fill="none" xmlns="http://www.w3.org/2000/svg">
<path d="M64.8362 7.70605C62.3583 7.87942 58.1356 14.4866 54.2648 23.1164C47.0071 24.8501 41.0689 27.2387 40.4531 29.7814C40.7317 33.634 43.2829 40.6072 48.0334 48.0427C47.359 57.1927 47.6375 64.1466 48.5613 67.5947C53.6756 66.4163 58.7291 64.8208 63.6925 62.8174C68.4795 65.1309 73.4096 66.8968 78.4279 68.0955C79.7622 65.4565 80.3047 58.464 79.9821 49.1985C85.0845 42.129 88.1049 35.2906 88.3102 31.438C87.841 28.8183 81.9322 26.0059 74.7037 23.7329C71.1849 14.8911 67.2701 7.91795 64.8362 7.70605Z" stroke="#322838" stroke-width="6" stroke-linecap="round" stroke-linejoin="round"/>
<path d="M64.8362 3.85352C62.3583 4.02688 58.1356 10.6341 54.2648 19.2639C47.0071 20.9976 41.0689 23.3862 40.4531 25.9289C40.7317 29.7815 43.2829 36.7547 48.0334 44.1902C47.359 53.3401 47.6375 60.2941 48.5613 63.7421C53.6756 62.5638 58.7291 60.9683 63.6925 58.9649C68.4795 61.2784 73.4096 63.0443 78.4279 64.243C79.7622 61.6039 80.3047 54.6115 79.9821 45.346C85.0845 38.2765 88.1049 31.4381 88.3102 27.5855C87.841 24.9657 81.9322 22.1533 74.7037 19.8803C71.1849 11.0386 67.2701 4.06541 64.8362 3.85352Z" stroke="#322838" stroke-width="4" stroke-linecap="round" stroke-linejoin="round"/>
<path d="M64.8362 3.85352C62.3583 4.02688 58.1356 10.6341 54.2648 19.2639C47.0071 20.9976 41.0689 23.3862 40.4531 25.9289C40.7317 29.7815 43.2829 36.7547 48.0334 44.1902C47.359 53.3401 47.6375 60.2941 48.5613 63.7421C53.6756 62.5638 58.7291 60.9683 63.6925 58.9649C68.4795 61.2784 73.4096 63.0443 78.4279 64.243C79.7622 61.6039 80.3047 54.6115 79.9821 45.346C85.0845 38.2765 88.1049 31.4381 88.3102 27.5855C87.841 24.9657 81.9322 22.1533 74.7037 19.8803C71.1849 11.0386 67.2701 4.06541 64.8362 3.85352Z" fill="#FF8002"/>
<g style="mix-blend-mode:darken">
<path d="M62.6658 31.0914L40.4527 25.8711C40.4527 25.8711 39.6463 38.1609 47.1973 43.2078C43.5611 49.2949 48.6635 63.9925 49.3819 63.8577C49.3819 63.8577 51.7425 43.8049 59.792 32.5361L62.7244 31.0721" fill="#FFB000"/>
</g>
<path style="mix-blend-mode:darken" opacity="0.5" d="M62.6662 31.0914C52.5493 33.6919 47.0217 45.3845 47.0217 45.3845C41.6114 37.5059 40.4531 25.8711 40.4531 25.8711L53.2385 27.7974L62.6662 31.0528" fill="url(#paint0_linear_312_17453)"/>
<path d="M64.8358 3.85352C63.895 8.32196 63.1992 12.8733 62.7538 17.4724C62.4625 22.5644 62.5607 27.6818 63.047 32.748L74.3075 19.2639C70.4514 4.89372 64.8358 3.85352 64.8358 3.85352Z" fill="#FFD01C"/>
<path d="M88.3096 27.5275C79.7773 28.1565 71.3142 29.9053 63.0469 32.7478C66.5071 24.6573 74.3074 19.2637 74.3074 19.2637C74.3074 19.2637 86.0517 22.9236 88.3096 27.5275Z" fill="#FFD01C"/>
<path d="M88.3096 27.5275C79.7773 28.1565 71.3142 29.9053 63.0469 32.7478C66.5071 24.6573 74.3074 19.2637 74.3074 19.2637C74.3074 19.2637 86.0517 22.9236 88.3096 27.5275Z" fill="url(#paint1_linear_312_17453)"/>
<path d="M62.6662 31.0914C55.3933 28.4949 47.9601 26.7481 40.4531 25.8711C40.4531 24.8116 45.145 19.8803 54.2501 19.4565C54.2501 19.4565 60.7015 4.25804 64.8362 3.85352C63.656 8.24115 62.955 12.8264 62.7542 17.4724C62.4609 25.0428 62.6662 31.0914 62.6662 31.0914Z" fill="#FFB000"/>
<path d="M62.9004 33.3251L63.4136 31.4951C63.4136 31.4951 75.6857 36.0797 80.2456 45.6727C80.2456 45.6727 80.4656 58.2707 78.4275 64.1844C74.9504 60.0117 71.935 55.2201 69.469 49.9491C63.7215 38.0253 62.9004 33.3251 62.9004 33.3251Z" fill="url(#paint2_linear_312_17453)"/>
<path style="mix-blend-mode:darken" opacity="0.5" d="M62.9005 33.3252C64.7325 38.7376 66.8388 43.9825 69.2052 49.0245C72.2274 55.1926 75.6622 60.9945 79.4686 66.3612L70.9646 66.0337L63.0471 59.2724C63.0471 59.2724 55.0563 64.2615 48.6489 64.223C55.4961 40.2021 62.9005 33.3252 62.9005 33.3252Z" fill="url(#paint3_linear_312_17453)"/>
<path style="mix-blend-mode:darken" opacity="0.5" d="M50.7456 57.5002C56.9183 38.8922 62.9005 33.3252 62.9005 33.3252L63.0471 59.2724C63.0471 59.2724 55.0563 64.2615 48.6489 64.223C49.338 61.8151 50.0272 59.5614 50.7163 57.5002" fill="url(#paint4_linear_312_17453)"/>
<g style="mix-blend-mode:darken">
<path d="M61.6686 62.509L61.5807 61.6422C61.5807 61.0836 61.4341 60.313 61.3754 59.2728C61.1953 56.8727 61.1463 54.4586 61.2288 52.0492C61.3094 49.6705 61.5151 47.3019 61.8446 44.9604C62.1085 43.0342 62.3871 41.8398 62.3871 41.8398C62.3156 42.8966 62.2862 43.9575 62.2991 45.0182C62.3083 47.3391 62.4406 49.6562 62.695 51.9529C62.9398 54.2189 63.3073 56.4591 63.7946 58.6564C63.9706 59.5233 64.1759 60.2745 64.3078 60.8139C64.4398 61.3532 64.5131 61.6422 64.5131 61.6422L61.6686 62.509Z" fill="#322838"/>
</g>
<path d="M62.9001 33.3258C62.9001 33.3258 69.0289 51.2211 75.143 58.7529C75.143 58.7529 67.9146 44.402 65.2461 32.0352H60.5396L62.9001 33.3258Z" fill="url(#paint5_linear_312_17453)"/>
<path d="M62.5045 33.3258L64.8357 32.0352H60.1145C60.1145 32.0352 56.7716 37.0628 50.8921 55.8635C58.531 37.5251 62.5045 33.3258 62.5045 33.3258Z" fill="url(#paint6_linear_312_17453)"/>
<path d="M64.8362 3.85303C65.0561 2.31199 63.5166 10.5758 65.1001 31.7458V34.3656L62.9008 33.3254C49.8515 25.7936 40.4531 25.8706 40.4531 25.8706C40.4531 25.8706 54.822 25.4276 62.6075 29.9158C62.0284 21.12 62.786 12.2608 64.8362 3.85303V3.85303Z" fill="#FFD01C"/>
<path d="M64.8362 3.85303C65.0561 2.31199 63.5166 10.5758 65.1001 31.7458V34.3656L62.9008 33.3254C49.8515 25.7936 40.4531 25.8706 40.4531 25.8706C40.4531 25.8706 54.822 25.4276 62.6075 29.9158C62.0284 21.12 62.786 12.2608 64.8362 3.85303V3.85303Z" fill="url(#paint7_linear_312_17453)"/>
<g style="mix-blend-mode:darken">
<g style="mix-blend-mode:darken">
<path d="M80.2896 48.312C80.2896 48.312 80.0403 47.5993 79.5125 46.3857C78.2342 43.5737 76.6373 41.034 74.7766 38.8539C74.3808 38.3916 74.0435 38.0449 73.8089 37.7944L73.4277 37.4092L73.8676 37.6596C74.1608 37.8137 74.5567 38.0449 75.0259 38.3531C76.1956 39.1278 77.3138 40.0299 78.3689 41.0499C79.4472 42.0656 80.4621 43.1929 81.4039 44.4209C81.861 44.9835 82.2918 45.5817 82.6942 46.2124L80.2896 48.312Z" fill="#322838"/>
</g>
</g>
<path d="M112.194 36.793C108.138 37.9293 104.298 40.1308 100.905 43.2653C96.7659 42.194 92.5573 41.6585 88.3391 41.6665C88.7782 47.2363 89.513 52.759 90.5384 58.1941C88.6282 62.9015 87.2689 67.9603 86.5063 73.2C87.6207 74.9915 92.1512 75.9546 97.8108 76.205C101.682 81.9839 105.567 85.9714 107.752 86.1447C109.467 85.8173 111.681 79.7879 113.617 72.4102C119.129 69.4245 123.572 65.9764 123.748 63.5878C123.645 60.8717 120.229 56.0367 115.42 51.4136C114.731 43.9781 113.69 37.8717 112.194 36.793Z" stroke="#322838" stroke-width="6" stroke-linecap="round" stroke-linejoin="round"/>
<path d="M112.194 32.9404C108.138 34.0768 104.298 36.2783 100.905 39.4128C96.7659 38.3414 92.5573 37.8059 88.3391 37.814C88.7782 43.3838 89.513 48.9065 90.5384 54.3416C88.6282 59.049 87.2689 64.1078 86.5063 69.3475C87.6207 71.1389 92.1512 72.1021 97.8108 72.3525C101.682 78.1314 105.567 82.1188 107.752 82.2922C109.467 81.9647 111.681 75.9354 113.617 68.5577C119.129 65.5719 123.572 62.1238 123.748 59.7352C123.645 57.0192 120.229 52.1841 115.42 47.561C114.731 40.1255 113.69 34.0192 112.194 32.9404Z" stroke="#322838" stroke-width="4" stroke-linecap="round" stroke-linejoin="round"/>
<path d="M112.194 32.9404C108.138 34.0768 104.298 36.2783 100.905 39.4128C96.7659 38.3414 92.5573 37.8059 88.3391 37.814C88.7782 43.3838 89.513 48.9065 90.5384 54.3416C88.6282 59.049 87.2689 64.1078 86.5063 69.3475C87.6207 71.1389 92.1512 72.1021 97.8108 72.3525C101.682 78.1314 105.567 82.1188 107.752 82.2922C109.467 81.9647 111.681 75.9354 113.617 68.5577C119.129 65.5719 123.572 62.1238 123.748 59.7352C123.645 57.0192 120.229 52.1841 115.42 47.561C114.731 40.1255 113.69 34.0192 112.194 32.9404Z" fill="#FF8002"/>
<path style="mix-blend-mode:darken" opacity="0.5" d="M104.101 51.8372C98.9762 50.6319 93.694 52.0075 89.3068 55.6898C88.1296 50.1774 88.0941 44.3519 89.2042 38.8154L98.0014 45.4997L104.101 51.8372Z" fill="url(#paint8_linear_312_17453)"/>
<path d="M112.194 32.9404C110.446 35.8008 108.853 38.8197 107.429 41.9748C106.041 45.5588 104.926 49.314 104.101 53.1858L115.405 48.1582C116.021 36.0032 112.194 32.9404 112.194 32.9404Z" fill="#FFD01C"/>
<path d="M123.601 59.8123C117.285 56.7567 110.752 54.5369 104.101 53.1858C108.499 48.7361 115.405 48.1582 115.405 48.1582C115.405 48.1582 123.059 55.5359 123.601 59.8123Z" fill="#FFD01C"/>
<path d="M123.601 59.8123C117.285 56.7567 110.752 54.5369 104.101 53.1858C108.499 48.7361 115.405 48.1582 115.405 48.1582C115.405 48.1582 123.059 55.5359 123.601 59.8123Z" fill="url(#paint9_linear_312_17453)"/>
<path d="M104.101 51.8373C99.4359 46.953 94.4508 42.6212 89.2041 38.8926C89.424 38.1028 94.0426 36.4654 100.743 39.9135C100.743 39.9135 109.071 31.5341 112.165 32.9403C110.26 35.6415 108.656 38.6831 107.4 41.9747C105.435 47.2912 104.101 51.8373 104.101 51.8373Z" fill="#FFB000"/>
<path d="M103.764 53.5518L104.57 52.4346C104.57 52.4346 112.385 60.8332 113.367 69.7713C113.367 69.7713 110.508 78.9982 107.634 82.4656C106.095 78.0014 105.043 73.2737 104.511 68.4228C103.236 57.3081 103.764 53.5518 103.764 53.5518Z" fill="url(#paint10_linear_312_17453)"/>
<path style="mix-blend-mode:darken" opacity="0.5" d="M103.764 53.5518C103.802 58.2385 104.076 62.9168 104.585 67.5559C105.331 73.2889 106.464 78.9231 107.972 84.3918L101.872 80.5392L97.6788 72.3717C97.6788 72.3717 90.6996 72.7184 86.0518 70.0409C96.7697 55.4973 103.764 53.5518 103.764 53.5518Z" fill="url(#paint11_linear_312_17453)"/>
<path style="mix-blend-mode:darken" opacity="0.5" d="M89.1601 66.092C98.0746 55.1313 103.822 53.5518 103.822 53.5518L97.7374 72.468C97.7374 72.468 90.7582 72.8147 86.1104 70.1372C87.1807 68.6732 88.2217 67.3248 89.2187 66.092" fill="url(#paint12_linear_312_17453)"/>
<g style="mix-blend-mode:darken">
<path d="M95.5967 74.163L95.7433 73.4888C95.8459 73.065 95.9926 72.4679 96.1978 71.6974C97.1491 68.0771 98.487 64.6526 100.171 61.5265C100.846 60.2744 101.359 59.5039 101.359 59.5039C101.359 59.5039 100.992 60.4093 100.567 61.8155C100.057 63.5224 99.6356 65.273 99.3062 67.055C98.9807 68.8035 98.7504 70.5801 98.6171 72.3716C98.6171 73.065 98.5291 73.72 98.5144 74.163V74.8565L95.5967 74.163Z" fill="#322838"/>
</g>
<path d="M103.764 53.5516C103.764 53.5516 103.939 69.0775 106.579 77.0717C106.579 77.0717 104.746 63.5876 105.772 53.5708L102.356 51.6445L103.764 53.5516Z" fill="url(#paint13_linear_312_17453)"/>
<path d="M103.47 53.3784H105.479L102.063 51.4521C102.063 51.4521 98.412 53.7252 89.644 64.9362C99.5849 54.8039 103.47 53.3784 103.47 53.3784Z" fill="url(#paint14_linear_312_17453)"/>
<path d="M112.194 32.9404C112.722 31.9002 109.628 37.2938 105.728 53.3206L105.112 55.2469L103.764 53.5903C99.6826 47.522 94.7491 42.5447 89.2334 38.9312C89.2334 38.9312 99.7754 44.5367 104.365 50.9898C106.036 44.35 108.698 38.2142 112.194 32.9404V32.9404Z" fill="#FFD01C"/>
<path d="M112.194 32.9404C112.722 31.9002 109.628 37.2938 105.728 53.3206L105.112 55.2469L103.764 53.5903C99.6826 47.522 94.7491 42.5447 89.2334 38.9312C89.2334 38.9312 99.7754 44.5367 104.365 50.9898C106.036 44.35 108.698 38.2142 112.194 32.9404V32.9404Z" fill="url(#paint15_linear_312_17453)"/>
<g style="mix-blend-mode:darken">
<g style="mix-blend-mode:darken">
<path d="M112.502 71.6778C112.526 71.126 112.526 70.573 112.502 70.0212C112.42 68.7234 112.263 67.4355 112.033 66.1686C111.8 64.8993 111.491 63.6562 111.109 62.4508C110.984 62.0492 110.842 61.6569 110.684 61.2758L110.523 60.8135L110.787 61.1795C111.035 61.4828 111.27 61.8044 111.491 62.1426C112.174 63.1888 112.787 64.3102 113.323 65.4944C113.88 66.6785 114.37 67.9147 114.79 69.1929C115.006 69.8191 115.192 70.4625 115.347 71.1192L112.502 71.6778Z" fill="#322838"/>
</g>
</g>
<path d="M15.7909 36.793C19.8527 37.9269 23.6979 40.1285 27.0953 43.2653C31.234 42.194 35.4426 41.6585 39.6608 41.6665C39.2217 47.2363 38.4868 52.759 37.4614 58.1941C39.3904 62.8999 40.7741 67.9576 41.5668 73.2C40.4525 74.9915 35.9219 75.9546 30.2624 76.205C26.3916 81.9839 22.4915 85.9714 20.3215 86.1447C18.606 85.8173 16.392 79.7879 14.5299 72.4102C9.01699 69.5015 4.57438 66.0534 4.39844 63.6648C4.50107 60.9487 7.91734 56.1137 12.7265 51.4906C13.269 43.9781 14.31 37.8717 15.7909 36.793Z" stroke="#322838" stroke-width="6" stroke-linecap="round" stroke-linejoin="round"/>
<path d="M15.7909 32.9404C19.8527 34.0743 23.6979 36.2759 27.0953 39.4128C31.234 38.3414 35.4426 37.8059 39.6608 37.814C39.2217 43.3838 38.4868 48.9065 37.4614 54.3416C39.3904 59.0474 40.7741 64.1051 41.5668 69.3475C40.4525 71.1389 35.9219 72.1021 30.2624 72.3525C26.3916 78.1314 22.4915 82.1188 20.3215 82.2922C18.606 81.9647 16.392 75.9354 14.5299 68.5577C9.01699 65.649 4.57438 62.2009 4.39844 59.8123C4.50107 57.0962 7.91734 52.2612 12.7265 47.6381C13.269 40.1255 14.31 34.0192 15.7909 32.9404Z" stroke="#322838" stroke-width="4" stroke-linecap="round" stroke-linejoin="round"/>
<path d="M15.7909 32.9404C19.8527 34.0743 23.6979 36.2759 27.0953 39.4128C31.234 38.3414 35.4426 37.8059 39.6608 37.814C39.2217 43.3838 38.4868 48.9065 37.4614 54.3416C39.3904 59.0474 40.7741 64.1051 41.5668 69.3475C40.4525 71.1389 35.9219 72.1021 30.2624 72.3525C26.3916 78.1314 22.4915 82.1188 20.3215 82.2922C18.606 81.9647 16.392 75.9354 14.5299 68.5577C9.01699 65.649 4.57438 62.2009 4.39844 59.8123C4.50107 57.0962 7.91734 52.2612 12.7265 47.6381C13.269 40.1255 14.31 34.0192 15.7909 32.9404Z" fill="#FF8002"/>
<path style="mix-blend-mode:darken" opacity="0.5" d="M23.8696 51.8372C28.9943 50.6319 34.2764 52.0075 38.6637 55.6898C39.8325 50.1758 39.8679 44.3533 38.7663 38.8154L29.9691 45.4997L23.899 51.7602" fill="url(#paint16_linear_312_17453)"/>
<path d="M15.791 32.9404C17.5314 35.7998 19.1141 38.8189 20.5268 41.9748C21.9396 45.5551 23.0791 49.3104 23.9284 53.1858L12.5947 48.1582C11.9788 36.0032 15.791 32.9404 15.791 32.9404Z" fill="#FFD01C"/>
<path d="M4.39844 59.8123C10.7383 56.7505 17.2957 54.5306 23.9723 53.1858C19.5297 48.7361 12.5945 48.1582 12.5945 48.1582C12.5945 48.1582 4.94093 55.5359 4.39844 59.8123Z" fill="#FFD01C"/>
<path d="M4.39844 59.8123C10.7383 56.7505 17.2957 54.5306 23.9723 53.1858C19.5297 48.7361 12.5945 48.1582 12.5945 48.1582C12.5945 48.1582 4.94093 55.5359 4.39844 59.8123Z" fill="url(#paint17_linear_312_17453)"/>
<path d="M23.8698 51.8373C28.5347 46.953 33.5198 42.6212 38.7665 38.8926C38.5319 38.1028 33.928 36.4654 27.2274 39.9135C27.2274 39.9135 18.8994 31.5341 15.791 32.9403C17.6877 35.6415 19.2823 38.6835 20.5269 41.9747C22.5649 47.2912 23.8698 51.8373 23.8698 51.8373Z" fill="#FFB000"/>
<path d="M24.2365 53.5518L23.4594 52.4346C23.4594 52.4346 15.6445 60.8332 14.6621 69.7713C14.6621 69.7713 17.5945 78.9982 20.395 82.4656C21.9208 77.9669 22.9526 73.2064 23.4594 68.3265C24.7643 57.3081 24.2365 53.5518 24.2365 53.5518Z" fill="url(#paint18_linear_312_17453)"/>
<path style="mix-blend-mode:darken" opacity="0.5" d="M24.2363 53.5518C24.2167 58.2374 23.957 62.9161 23.4592 67.5559C22.7222 73.2896 21.5936 78.9243 20.0869 84.3918L26.1863 80.5392L30.3797 72.3717C30.3797 72.3717 37.3588 72.7184 42.0067 70.0409C31.2594 55.4973 24.2363 53.5518 24.2363 53.5518Z" fill="url(#paint19_linear_312_17453)"/>
<path style="mix-blend-mode:darken" opacity="0.5" d="M38.8398 66.092C29.9253 55.1313 24.1777 53.5518 24.1777 53.5518L30.2625 72.468C30.2625 72.468 37.2417 72.8147 41.8895 70.1372C40.8192 68.6732 39.7782 67.3248 38.7812 66.092" fill="url(#paint20_linear_312_17453)"/>
<g style="mix-blend-mode:darken">
<path d="M29.5144 74.8565V74.163C29.5144 73.72 29.5144 73.065 29.4117 72.3716C29.2784 70.5801 29.0481 68.8035 28.7226 67.055C28.3932 65.273 27.9719 63.5224 27.4617 61.8155C27.0365 60.4093 26.6699 59.5039 26.6699 59.5039C26.6699 59.5039 27.1831 60.2744 27.8575 61.5265C28.6896 63.0747 29.4392 64.6967 30.1008 66.3808C30.7711 68.0979 31.3492 69.8744 31.831 71.6974C32.0362 72.4679 32.1829 73.065 32.2855 73.4888L32.4321 74.163L29.5144 74.8565Z" fill="#322838"/>
</g>
<path d="M24.236 53.5513C24.236 53.5513 24.0601 69.0773 21.4209 77.0521C21.4209 77.0521 23.239 63.5681 22.2273 53.5513L25.6436 51.625L24.236 53.5513Z" fill="url(#paint21_linear_312_17453)"/>
<path d="M24.5297 53.3784H22.521L25.9373 51.4521C25.9373 51.4521 29.5881 53.7252 38.356 64.9362C28.4152 54.8039 24.5297 53.3784 24.5297 53.3784Z" fill="url(#paint22_linear_312_17453)"/>
<path d="M15.7909 32.9404C15.2777 31.9002 18.3568 37.2938 22.2715 53.3206L22.8873 55.2469L24.2363 53.5903C28.3172 47.522 33.2506 42.5447 38.7664 38.9312C38.7664 38.9312 28.2243 44.5367 23.6351 50.9898C21.9615 44.347 19.2945 38.2104 15.7909 32.9404V32.9404Z" fill="#FFD01C"/>
<path d="M15.7909 32.9404C15.2777 31.9002 18.3568 37.2938 22.2715 53.3206L22.8873 55.2469L24.2363 53.5903C28.3172 47.522 33.2506 42.5447 38.7664 38.9312C38.7664 38.9312 28.2243 44.5367 23.6351 50.9898C21.9615 44.347 19.2945 38.2104 15.7909 32.9404V32.9404Z" fill="url(#paint23_linear_312_17453)"/>
<g style="mix-blend-mode:darken">
<g style="mix-blend-mode:darken">
<path d="M12.6094 71.0237C12.7645 70.367 12.9505 69.7236 13.1665 69.0974C13.5985 67.851 14.0983 66.6472 14.6621 65.4952C15.2202 64.3347 15.853 63.2391 16.5535 62.2205C16.774 61.8822 17.009 61.5607 17.2573 61.2573L17.5945 60.8721L17.4332 61.3344C17.2751 61.7155 17.1332 62.1078 17.008 62.5094C16.6261 63.7148 16.3172 64.9579 16.0843 66.2272C15.8547 67.4941 15.6978 68.782 15.6151 70.0798C15.5917 70.6316 15.5917 71.1846 15.6151 71.7364L12.6094 71.0237Z" fill="#322838"/>
</g>
</g>
<defs>
<linearGradient id="paint0_linear_312_17453" x1="51.567" y1="45.3845" x2="51.567" y2="25.8711" gradientUnits="userSpaceOnUse">
<stop stop-color="#8F3815" stop-opacity="0"/>
<stop offset="1" stop-color="#8F3815"/>
</linearGradient>
<linearGradient id="paint1_linear_312_17453" x1="75.6856" y1="32.7285" x2="75.6856" y2="19.3215" gradientUnits="userSpaceOnUse">
<stop stop-color="#FFFF6E" stop-opacity="0"/>
<stop offset="1" stop-color="#FFFF6E"/>
</linearGradient>
<linearGradient id="paint2_linear_312_17453" x1="71.5803" y1="64.1844" x2="71.5803" y2="31.4951" gradientUnits="userSpaceOnUse">
<stop stop-color="#FFB000"/>
<stop offset="1" stop-color="#FFD01C"/>
</linearGradient>
<linearGradient id="paint3_linear_312_17453" x1="64.1174" y1="66.3227" x2="64.1174" y2="33.3252" gradientUnits="userSpaceOnUse">
<stop stop-color="#8F3815" stop-opacity="0"/>
<stop offset="1" stop-color="#8F3815"/>
</linearGradient>
<linearGradient id="paint4_linear_312_17453" x1="55.8773" y1="64.223" x2="55.8773" y2="33.3252" gradientUnits="userSpaceOnUse">
<stop stop-color="#8F3815"/>
<stop offset="1" stop-color="#8F3815" stop-opacity="0"/>
</linearGradient>
<linearGradient id="paint5_linear_312_17453" x1="67.8413" y1="58.7529" x2="67.8413" y2="32.0159" gradientUnits="userSpaceOnUse">
<stop stop-color="#FFD01C" stop-opacity="0"/>
<stop offset="1" stop-color="#FFFF6E"/>
</linearGradient>
<linearGradient id="paint6_linear_312_17453" x1="57.8712" y1="55.8827" x2="57.8712" y2="32.0159" gradientUnits="userSpaceOnUse">
<stop stop-color="#FFB000" stop-opacity="0"/>
<stop offset="1" stop-color="#FFB000"/>
</linearGradient>
<linearGradient id="paint7_linear_312_17453" x1="65.452" y1="31.5917" x2="45.8636" y2="16.682" gradientUnits="userSpaceOnUse">
<stop stop-color="#FFFF6E"/>
<stop offset="1" stop-color="#FFD01C" stop-opacity="0"/>
</linearGradient>
<linearGradient id="paint8_linear_312_17453" x1="88.2539" y1="53.9042" x2="100.945" y2="46.4325" gradientUnits="userSpaceOnUse">
<stop stop-color="#8F3815" stop-opacity="0"/>
<stop offset="1" stop-color="#8F3815"/>
</linearGradient>
<linearGradient id="paint9_linear_312_17453" x1="108.912" y1="61.4774" x2="121.026" y2="54.3462" gradientUnits="userSpaceOnUse">
<stop stop-color="#FFFF6E" stop-opacity="0"/>
<stop offset="1" stop-color="#FFFF6E"/>
</linearGradient>
<linearGradient id="paint10_linear_312_17453" x1="101.577" y1="72.0173" x2="113.071" y2="65.2507" gradientUnits="userSpaceOnUse">
<stop stop-color="#FFB000"/>
<stop offset="1" stop-color="#FFD01C"/>
</linearGradient>
<linearGradient id="paint11_linear_312_17453" x1="92.5263" y1="81.1235" x2="112.926" y2="69.1138" gradientUnits="userSpaceOnUse">
<stop stop-color="#8F3815" stop-opacity="0"/>
<stop offset="1" stop-color="#8F3815"/>
</linearGradient>
<linearGradient id="paint12_linear_312_17453" x1="88.4089" y1="74.1296" x2="108.809" y2="62.12" gradientUnits="userSpaceOnUse">
<stop stop-color="#8F3815"/>
<stop offset="1" stop-color="#8F3815" stop-opacity="0"/>
</linearGradient>
<linearGradient id="paint13_linear_312_17453" x1="101.1" y1="67.7596" x2="110.777" y2="62.0627" gradientUnits="userSpaceOnUse">
<stop stop-color="#FFD01C" stop-opacity="0"/>
<stop offset="1" stop-color="#FFFF6E"/>
</linearGradient>
<linearGradient id="paint14_linear_312_17453" x1="90.2377" y1="65.9642" x2="107.045" y2="56.0695" gradientUnits="userSpaceOnUse">
<stop stop-color="#FFB000" stop-opacity="0"/>
<stop offset="1" stop-color="#FFB000"/>
</linearGradient>
<linearGradient id="paint15_linear_312_17453" x1="99.0901" y1="52.8531" x2="102.919" y2="30.042" gradientUnits="userSpaceOnUse">
<stop stop-color="#FFFF6E"/>
<stop offset="1" stop-color="#FFD01C" stop-opacity="0"/>
</linearGradient>
<linearGradient id="paint16_linear_312_17453" x1="39.7818" y1="53.7107" x2="27.0977" y2="46.256" gradientUnits="userSpaceOnUse">
<stop stop-color="#8F3815" stop-opacity="0"/>
<stop offset="1" stop-color="#8F3815"/>
</linearGradient>
<linearGradient id="paint17_linear_312_17453" x1="19.1645" y1="61.2645" x2="7.07133" y2="54.1571" gradientUnits="userSpaceOnUse">
<stop stop-color="#FFFF6E" stop-opacity="0"/>
<stop offset="1" stop-color="#FFFF6E"/>
</linearGradient>
<linearGradient id="paint18_linear_312_17453" x1="26.4844" y1="71.775" x2="15.0097" y2="65.031" gradientUnits="userSpaceOnUse">
<stop stop-color="#FFB000"/>
<stop offset="1" stop-color="#FFD01C"/>
</linearGradient>
<linearGradient id="paint19_linear_312_17453" x1="35.5317" y1="80.8559" x2="15.1657" y2="68.8863" gradientUnits="userSpaceOnUse">
<stop stop-color="#8F3815" stop-opacity="0"/>
<stop offset="1" stop-color="#8F3815"/>
</linearGradient>
<linearGradient id="paint20_linear_312_17453" x1="39.637" y1="73.8709" x2="19.271" y2="61.9013" gradientUnits="userSpaceOnUse">
<stop stop-color="#8F3815"/>
<stop offset="1" stop-color="#8F3815" stop-opacity="0"/>
</linearGradient>
<linearGradient id="paint21_linear_312_17453" x1="26.9566" y1="67.5414" x2="17.3095" y2="61.8716" gradientUnits="userSpaceOnUse">
<stop stop-color="#FFD01C" stop-opacity="0"/>
<stop offset="1" stop-color="#FFFF6E"/>
</linearGradient>
<linearGradient id="paint22_linear_312_17453" x1="37.8184" y1="65.7347" x2="21.0254" y2="55.865" gradientUnits="userSpaceOnUse">
<stop stop-color="#FFB000" stop-opacity="0"/>
<stop offset="1" stop-color="#FFB000"/>
</linearGradient>
<linearGradient id="paint23_linear_312_17453" x1="28.9655" y1="52.6732" x2="25.1013" y2="29.902" gradientUnits="userSpaceOnUse">
<stop stop-color="#FFFF6E"/>
<stop offset="1" stop-color="#FFD01C" stop-opacity="0"/>
</linearGradient>
</defs>
</svg>
