<svg width="164" height="94" viewBox="0 0 164 94" fill="none" xmlns="http://www.w3.org/2000/svg">
<g filter="url(#filter0_d_309_17536)">
<path d="M16.4312 25.376L134.294 26.6055L134.203 69.481L16.3397 68.2515L16.4312 25.376Z" fill="#9C1EF3"/>
<path d="M16.4312 25.376L134.294 26.6055L134.203 69.481L16.3397 68.2515L16.4312 25.376Z" fill="black" fill-opacity="0.2"/>
<path d="M16.9301 25.8812L133.793 27.1002L133.704 68.9757L16.8408 67.7567L16.9301 25.8812Z" stroke="#0B0B0B"/>
</g>
<g filter="url(#filter1_d_309_17536)">
<path d="M22.0698 16.3701L139.933 17.5996L139.841 60.4751L21.9784 59.2456L22.0698 16.3701Z" fill="#E8EDF6"/>
<path d="M22.5687 16.8753L139.432 18.0944L139.342 59.9699L22.4794 58.7508L22.5687 16.8753Z" stroke="#0B0B0B"/>
</g>
<defs>
<filter id="filter0_d_309_17536" x="0.339844" y="9.37598" width="157.954" height="84.1045" filterUnits="userSpaceOnUse" color-interpolation-filters="sRGB">
<feFlood flood-opacity="0" result="BackgroundImageFix"/>
<feColorMatrix in="SourceAlpha" type="matrix" values="0 0 0 0 0 0 0 0 0 0 0 0 0 0 0 0 0 0 127 0" result="hardAlpha"/>
<feOffset dx="4" dy="4"/>
<feGaussianBlur stdDeviation="10"/>
<feComposite in2="hardAlpha" operator="out"/>
<feColorMatrix type="matrix" values="0 0 0 0 0.0392157 0 0 0 0 0.556863 0 0 0 0 0.258824 0 0 0 0.43 0"/>
<feBlend mode="normal" in2="BackgroundImageFix" result="effect1_dropShadow_309_17536"/>
<feBlend mode="normal" in="SourceGraphic" in2="effect1_dropShadow_309_17536" result="shape"/>
</filter>
<filter id="filter1_d_309_17536" x="5.97852" y="0.370117" width="157.954" height="84.1045" filterUnits="userSpaceOnUse" color-interpolation-filters="sRGB">
<feFlood flood-opacity="0" result="BackgroundImageFix"/>
<feColorMatrix in="SourceAlpha" type="matrix" values="0 0 0 0 0 0 0 0 0 0 0 0 0 0 0 0 0 0 127 0" result="hardAlpha"/>
<feOffset dx="4" dy="4"/>
<feGaussianBlur stdDeviation="10"/>
<feComposite in2="hardAlpha" operator="out"/>
<feColorMatrix type="matrix" values="0 0 0 0 0.0392157 0 0 0 0 0.556863 0 0 0 0 0.258824 0 0 0 0.43 0"/>
<feBlend mode="normal" in2="BackgroundImageFix" result="effect1_dropShadow_309_17536"/>
<feBlend mode="normal" in="SourceGraphic" in2="effect1_dropShadow_309_17536" result="shape"/>
</filter>
</defs>
</svg>
