<svg width="165" height="94" viewBox="0 0 165 94" fill="none" xmlns="http://www.w3.org/2000/svg">
<g filter="url(#filter0_d_309_17649)">
<path d="M16.8003 25.5239L134.663 26.7534L134.572 69.6289L16.7089 68.3994L16.8003 25.5239Z" fill="#9C1EF3"/>
<path d="M16.8003 25.5239L134.663 26.7534L134.572 69.6289L16.7089 68.3994L16.8003 25.5239Z" fill="black" fill-opacity="0.2"/>
<path d="M17.2992 26.0291L134.162 27.2482L134.073 69.1237L17.2099 67.9046L17.2992 26.0291Z" stroke="#0B0B0B"/>
</g>
<g filter="url(#filter1_d_309_17649)">
<path d="M22.4385 16.5171L140.301 17.7466L140.21 60.6221L22.347 59.3926L22.4385 16.5171Z" fill="#0A0017"/>
<path d="M22.9374 17.0223L139.8 18.2414L139.711 60.1169L22.8481 58.8978L22.9374 17.0223Z" stroke="#0B0B0B"/>
</g>
<defs>
<filter id="filter0_d_309_17649" x="0.708984" y="9.52393" width="157.954" height="84.105" filterUnits="userSpaceOnUse" color-interpolation-filters="sRGB">
<feFlood flood-opacity="0" result="BackgroundImageFix"/>
<feColorMatrix in="SourceAlpha" type="matrix" values="0 0 0 0 0 0 0 0 0 0 0 0 0 0 0 0 0 0 127 0" result="hardAlpha"/>
<feOffset dx="4" dy="4"/>
<feGaussianBlur stdDeviation="10"/>
<feComposite in2="hardAlpha" operator="out"/>
<feColorMatrix type="matrix" values="0 0 0 0 0.0392157 0 0 0 0 0.556863 0 0 0 0 0.258824 0 0 0 0.43 0"/>
<feBlend mode="normal" in2="BackgroundImageFix" result="effect1_dropShadow_309_17649"/>
<feBlend mode="normal" in="SourceGraphic" in2="effect1_dropShadow_309_17649" result="shape"/>
</filter>
<filter id="filter1_d_309_17649" x="6.34717" y="0.51709" width="157.954" height="84.105" filterUnits="userSpaceOnUse" color-interpolation-filters="sRGB">
<feFlood flood-opacity="0" result="BackgroundImageFix"/>
<feColorMatrix in="SourceAlpha" type="matrix" values="0 0 0 0 0 0 0 0 0 0 0 0 0 0 0 0 0 0 127 0" result="hardAlpha"/>
<feOffset dx="4" dy="4"/>
<feGaussianBlur stdDeviation="10"/>
<feComposite in2="hardAlpha" operator="out"/>
<feColorMatrix type="matrix" values="0 0 0 0 0.0392157 0 0 0 0 0.556863 0 0 0 0 0.258824 0 0 0 0.43 0"/>
<feBlend mode="normal" in2="BackgroundImageFix" result="effect1_dropShadow_309_17649"/>
<feBlend mode="normal" in="SourceGraphic" in2="effect1_dropShadow_309_17649" result="shape"/>
</filter>
</defs>
</svg>
