<svg width="164" height="88" viewBox="0 0 164 88" fill="none" xmlns="http://www.w3.org/2000/svg">
<g filter="url(#filter0_d_309_17559)">
<path d="M16.374 24.6641L134.063 25.7407L133.972 63.2849L16.2827 62.2083L16.374 24.6641Z" fill="#9C1EF3"/>
<path d="M16.374 24.6641L134.063 25.7407L133.972 63.2849L16.2827 62.2083L16.374 24.6641Z" fill="black" fill-opacity="0.2"/>
<path d="M16.8728 25.1686L133.562 26.2361L133.473 62.7803L16.7839 61.7128L16.8728 25.1686Z" stroke="#0B0B0B"/>
</g>
<g filter="url(#filter1_d_309_17559)">
<path d="M22.0034 16.7773L139.693 17.8877L139.604 55.4319L21.9149 54.3216L22.0034 16.7773Z" fill="#E8EDF6"/>
<path d="M22.5022 17.2821L139.191 18.383L139.105 54.9272L22.4161 53.8263L22.5022 17.2821Z" stroke="#0B0B0B"/>
</g>
<defs>
<filter id="filter0_d_309_17559" x="0.282715" y="8.66406" width="157.781" height="78.6211" filterUnits="userSpaceOnUse" color-interpolation-filters="sRGB">
<feFlood flood-opacity="0" result="BackgroundImageFix"/>
<feColorMatrix in="SourceAlpha" type="matrix" values="0 0 0 0 0 0 0 0 0 0 0 0 0 0 0 0 0 0 127 0" result="hardAlpha"/>
<feOffset dx="4" dy="4"/>
<feGaussianBlur stdDeviation="10"/>
<feComposite in2="hardAlpha" operator="out"/>
<feColorMatrix type="matrix" values="0 0 0 0 0.0392157 0 0 0 0 0.556863 0 0 0 0 0.258824 0 0 0 0.43 0"/>
<feBlend mode="normal" in2="BackgroundImageFix" result="effect1_dropShadow_309_17559"/>
<feBlend mode="normal" in="SourceGraphic" in2="effect1_dropShadow_309_17559" result="shape"/>
</filter>
<filter id="filter1_d_309_17559" x="5.91504" y="0.777344" width="157.778" height="78.6543" filterUnits="userSpaceOnUse" color-interpolation-filters="sRGB">
<feFlood flood-opacity="0" result="BackgroundImageFix"/>
<feColorMatrix in="SourceAlpha" type="matrix" values="0 0 0 0 0 0 0 0 0 0 0 0 0 0 0 0 0 0 127 0" result="hardAlpha"/>
<feOffset dx="4" dy="4"/>
<feGaussianBlur stdDeviation="10"/>
<feComposite in2="hardAlpha" operator="out"/>
<feColorMatrix type="matrix" values="0 0 0 0 0.0392157 0 0 0 0 0.556863 0 0 0 0 0.258824 0 0 0 0.43 0"/>
<feBlend mode="normal" in2="BackgroundImageFix" result="effect1_dropShadow_309_17559"/>
<feBlend mode="normal" in="SourceGraphic" in2="effect1_dropShadow_309_17559" result="shape"/>
</filter>
</defs>
</svg>
