<svg width="165" height="94" viewBox="0 0 165 94" fill="none" xmlns="http://www.w3.org/2000/svg">
<g filter="url(#filter0_d_309_17603)">
<path d="M16.6655 25.5239L134.528 26.7534L134.437 69.6289L16.5741 68.3994L16.6655 25.5239Z" fill="#9C1EF3"/>
<path d="M16.6655 25.5239L134.528 26.7534L134.437 69.6289L16.5741 68.3994L16.6655 25.5239Z" fill="black" fill-opacity="0.2"/>
<path d="M17.1644 26.0291L134.027 27.2482L133.938 69.1237L17.0751 67.9046L17.1644 26.0291Z" stroke="#0B0B0B"/>
</g>
<g filter="url(#filter1_d_309_17603)">
<path d="M22.3037 16.5171L140.167 17.7427L140.075 60.6182L22.212 59.3926L22.3037 16.5171Z" fill="#E8EDF6"/>
<path d="M22.8026 17.0223L139.666 18.2375L139.576 60.113L22.713 58.8978L22.8026 17.0223Z" stroke="#0B0B0B"/>
</g>
<defs>
<filter id="filter0_d_309_17603" x="0.574219" y="9.52393" width="157.954" height="84.105" filterUnits="userSpaceOnUse" color-interpolation-filters="sRGB">
<feFlood flood-opacity="0" result="BackgroundImageFix"/>
<feColorMatrix in="SourceAlpha" type="matrix" values="0 0 0 0 0 0 0 0 0 0 0 0 0 0 0 0 0 0 127 0" result="hardAlpha"/>
<feOffset dx="4" dy="4"/>
<feGaussianBlur stdDeviation="10"/>
<feComposite in2="hardAlpha" operator="out"/>
<feColorMatrix type="matrix" values="0 0 0 0 0.0392157 0 0 0 0 0.556863 0 0 0 0 0.258824 0 0 0 0.43 0"/>
<feBlend mode="normal" in2="BackgroundImageFix" result="effect1_dropShadow_309_17603"/>
<feBlend mode="normal" in="SourceGraphic" in2="effect1_dropShadow_309_17603" result="shape"/>
</filter>
<filter id="filter1_d_309_17603" x="6.21191" y="0.51709" width="157.955" height="84.1011" filterUnits="userSpaceOnUse" color-interpolation-filters="sRGB">
<feFlood flood-opacity="0" result="BackgroundImageFix"/>
<feColorMatrix in="SourceAlpha" type="matrix" values="0 0 0 0 0 0 0 0 0 0 0 0 0 0 0 0 0 0 127 0" result="hardAlpha"/>
<feOffset dx="4" dy="4"/>
<feGaussianBlur stdDeviation="10"/>
<feComposite in2="hardAlpha" operator="out"/>
<feColorMatrix type="matrix" values="0 0 0 0 0.0392157 0 0 0 0 0.556863 0 0 0 0 0.258824 0 0 0 0.43 0"/>
<feBlend mode="normal" in2="BackgroundImageFix" result="effect1_dropShadow_309_17603"/>
<feBlend mode="normal" in="SourceGraphic" in2="effect1_dropShadow_309_17603" result="shape"/>
</filter>
</defs>
</svg>
