<svg width="80" height="97" viewBox="0 0 80 97" fill="none" xmlns="http://www.w3.org/2000/svg">
<path fill-rule="evenodd" clip-rule="evenodd" d="M48 0V3.23333H50.6667V6.46667H53.3333V12.9333H56V22.6333H58.6667V25.8667H61.3333V22.6333H72V25.8667H74.6667V29.1H77.3333V35.5667H80V48.5H77.3333V54.9667H74.6667V58.2H69.3333V61.4333H66.6667V64.6667H69.3333V71.1333H72V84.0667H69.3333V90.5333H66.6667V93.7667H61.3333V97H50.6667V93.7667H45.3333V90.5333H42.6667V87.3H37.3333V90.5333H34.6667V93.7667H29.3333V97H18.6667V93.7667H13.3333V90.5333H10.6667V84.0667H8V71.1333H10.6667V64.6667H13.3333V61.4333H10.6667V58.2H5.33333V54.9667H2.66667V48.5H0V35.5667H2.66667V29.1H5.33333V25.8667H8V22.6333H18.6667V25.8667H21.3333V22.6333H24V12.9333H26.6667V6.46667H29.3333V3.23333H32V0H48Z" fill="#CE4CDF"/>
<path d="M48 3.23333V0H32V3.23333H29.3333V6.46667H26.6667V12.9333H24V22.6333H21.3333V25.8667H18.6667V22.6333H8V25.8667H5.33333V29.1H2.66667V35.5667H0V48.5H2.66667V54.9667H5.33333V58.2H10.6667V61.4333H13.3333V64.6667H10.6667V71.1333H8V84.0667H10.6667V90.5333H13.3333V93.7667H18.6667V97H29.3333V93.7667H34.6667V90.5333H37.3333V87.3H42.6667V90.5333H45.3333V93.7667H50.6667V97H61.3333V93.7667H66.6667V90.5333H69.3333V84.0667H72V71.1333H69.3333V64.6667H66.6667V61.4333H69.3333V58.2H74.6667V54.9667H77.3333V48.5H80V35.5667H77.3333V29.1H74.6667V25.8667H72V22.6333H61.3333V25.8667H58.6667V22.6333H56V12.9333H53.3333V6.46667H50.6667V3.23333H48Z" fill="#CE4CDF"/>
</svg>
