<svg width="96" height="138" viewBox="0 0 96 138" fill="none" xmlns="http://www.w3.org/2000/svg">
<path d="M55.3846 0H40.6154V4.6H33.2308V9.2H25.8462V13.8H22.1538V18.4H14.7692V23H11.0769V27.6H3.69231V32.2H0V105.8H3.69231V110.4H11.0769V115H14.7692V119.6H22.1538V124.2H25.8462V128.8H33.2308V133.4H40.6154V138H55.3846V133.4H62.7692V128.8H70.1538V124.2H73.8462V119.6H81.2308V115H84.9231V110.4H92.3077V105.8H96V32.2H92.3077V27.6H84.9231V23H81.2308V18.4H73.8462V13.8H70.1538V9.2H62.7692V4.6H55.3846V0Z" fill="#E8EDF6"/>
</svg>
