<svg width="79" height="97" viewBox="0 0 79 97" fill="none" xmlns="http://www.w3.org/2000/svg">
<path fill-rule="evenodd" clip-rule="evenodd" d="M47.4 0V3.23333H50.0333V6.46667H52.6667V12.9333H55.3V22.6333H57.9333V25.8667H60.5667V22.6333H71.1V25.8667H73.7333V29.1H76.3667V35.5667H79V48.5H76.3667V54.9667H73.7333V58.2H68.4667V61.4333H65.8333V64.6667H68.4667V71.1333H71.1V84.0667H68.4667V90.5333H65.8333V93.7667H60.5667V97H50.0333V93.7667H44.7667V90.5333H42.1333V87.3H36.8667V90.5333H34.2333V93.7667H28.9667V97H18.4333V93.7667H13.1667V90.5333H10.5333V84.0667H7.9V71.1333H10.5333V64.6667H13.1667V61.4333H10.5333V58.2H5.26667V54.9667H2.63333V48.5H0V35.5667H2.63333V29.1H5.26667V25.8667H7.9V22.6333H18.4333V25.8667H21.0667V22.6333H23.7V12.9333H26.3333V6.46667H28.9667V3.23333H31.6V0H47.4Z" fill="#71DCCC"/>
<path d="M47.4 3.23333V0H31.6V3.23333H28.9667V6.46667H26.3333V12.9333H23.7V22.6333H21.0667V25.8667H18.4333V22.6333H7.9V25.8667H5.26667V29.1H2.63333V35.5667H0V48.5H2.63333V54.9667H5.26667V58.2H10.5333V61.4333H13.1667V64.6667H10.5333V71.1333H7.9V84.0667H10.5333V90.5333H13.1667V93.7667H18.4333V97H28.9667V93.7667H34.2333V90.5333H36.8667V87.3H42.1333V90.5333H44.7667V93.7667H50.0333V97H60.5667V93.7667H65.8333V90.5333H68.4667V84.0667H71.1V71.1333H68.4667V64.6667H65.8333V61.4333H68.4667V58.2H73.7333V54.9667H76.3667V48.5H79V35.5667H76.3667V29.1H73.7333V25.8667H71.1V22.6333H60.5667V25.8667H57.9333V22.6333H55.3V12.9333H52.6667V6.46667H50.0333V3.23333H47.4Z" fill="#71DCCC"/>
</svg>
