<svg width="165" height="88" viewBox="0 0 165 88" fill="none" xmlns="http://www.w3.org/2000/svg">
<g filter="url(#filter0_d_309_17573)">
<path d="M16.8262 24.5244L134.516 25.601L134.424 63.1452L16.7349 62.0686L16.8262 24.5244Z" fill="#9C1EF3"/>
<path d="M16.8262 24.5244L134.516 25.601L134.424 63.1452L16.7349 62.0686L16.8262 24.5244Z" fill="black" fill-opacity="0.2"/>
<path d="M17.3249 25.029L134.014 26.0964L133.926 62.6407L17.2361 61.5732L17.3249 25.029Z" stroke="#0B0B0B"/>
</g>
<g filter="url(#filter1_d_309_17573)">
<path d="M22.4561 16.6377L140.146 17.7143L140.054 55.2585L22.3648 54.1819L22.4561 16.6377Z" fill="#E8EDF6"/>
<path d="M22.9548 17.1423L139.644 18.2097L139.555 54.7539L22.866 53.6865L22.9548 17.1423Z" stroke="#0B0B0B"/>
</g>
<defs>
<filter id="filter0_d_309_17573" x="0.734863" y="8.52441" width="157.781" height="78.6211" filterUnits="userSpaceOnUse" color-interpolation-filters="sRGB">
<feFlood flood-opacity="0" result="BackgroundImageFix"/>
<feColorMatrix in="SourceAlpha" type="matrix" values="0 0 0 0 0 0 0 0 0 0 0 0 0 0 0 0 0 0 127 0" result="hardAlpha"/>
<feOffset dx="4" dy="4"/>
<feGaussianBlur stdDeviation="10"/>
<feComposite in2="hardAlpha" operator="out"/>
<feColorMatrix type="matrix" values="0 0 0 0 0.0392157 0 0 0 0 0.556863 0 0 0 0 0.258824 0 0 0 0.43 0"/>
<feBlend mode="normal" in2="BackgroundImageFix" result="effect1_dropShadow_309_17573"/>
<feBlend mode="normal" in="SourceGraphic" in2="effect1_dropShadow_309_17573" result="shape"/>
</filter>
<filter id="filter1_d_309_17573" x="6.36475" y="0.637695" width="157.781" height="78.6211" filterUnits="userSpaceOnUse" color-interpolation-filters="sRGB">
<feFlood flood-opacity="0" result="BackgroundImageFix"/>
<feColorMatrix in="SourceAlpha" type="matrix" values="0 0 0 0 0 0 0 0 0 0 0 0 0 0 0 0 0 0 127 0" result="hardAlpha"/>
<feOffset dx="4" dy="4"/>
<feGaussianBlur stdDeviation="10"/>
<feComposite in2="hardAlpha" operator="out"/>
<feColorMatrix type="matrix" values="0 0 0 0 0.0392157 0 0 0 0 0.556863 0 0 0 0 0.258824 0 0 0 0.43 0"/>
<feBlend mode="normal" in2="BackgroundImageFix" result="effect1_dropShadow_309_17573"/>
<feBlend mode="normal" in="SourceGraphic" in2="effect1_dropShadow_309_17573" result="shape"/>
</filter>
</defs>
</svg>
